<mxfile host="app.diagrams.net" agent="Mozilla/5.0 (Macintosh; Intel Mac OS X 10_15_7) AppleWebKit/605.1.15 (KHTML, like Gecko) Version/17.6 Safari/605.1.15" version="24.8.4">
  <diagram name="Page-1" id="nwYuj8YhUT7K4s6BtMZ8">
    <mxGraphModel dx="1431" dy="512" grid="1" gridSize="10" guides="1" tooltips="1" connect="1" arrows="1" fold="1" page="1" pageScale="1" pageWidth="850" pageHeight="1100" math="0" shadow="0">
      <root>
        <mxCell id="0" />
        <mxCell id="1" parent="0" />
        <mxCell id="RWUjUu0c_Xh_wzrPaRDe-2" value="" style="rounded=0;whiteSpace=wrap;html=1;" vertex="1" parent="1">
          <mxGeometry x="150" y="70" width="350" height="1260" as="geometry" />
        </mxCell>
        <mxCell id="RWUjUu0c_Xh_wzrPaRDe-3" value="Select Seats" style="rounded=1;whiteSpace=wrap;html=1;" vertex="1" parent="1">
          <mxGeometry x="167.5" y="690" width="315" height="60" as="geometry" />
        </mxCell>
        <mxCell id="RWUjUu0c_Xh_wzrPaRDe-5" value="Movie Theatre Booking System" style="text;html=1;align=center;verticalAlign=middle;whiteSpace=wrap;rounded=0;" vertex="1" parent="1">
          <mxGeometry x="202.5" y="80" width="245" height="30" as="geometry" />
        </mxCell>
        <mxCell id="RWUjUu0c_Xh_wzrPaRDe-6" value="Create Account" style="rounded=1;whiteSpace=wrap;html=1;" vertex="1" parent="1">
          <mxGeometry x="167.5" y="130" width="315" height="60" as="geometry" />
        </mxCell>
        <mxCell id="RWUjUu0c_Xh_wzrPaRDe-8" value="Login / Logout" style="rounded=1;whiteSpace=wrap;html=1;" vertex="1" parent="1">
          <mxGeometry x="167.5" y="210" width="315" height="60" as="geometry" />
        </mxCell>
        <mxCell id="RWUjUu0c_Xh_wzrPaRDe-9" value="Browse movies&lt;span style=&quot;caret-color: rgba(0, 0, 0, 0); color: rgba(0, 0, 0, 0); font-family: monospace; font-size: 0px; text-align: start; white-space: nowrap;&quot;&gt;%3CmxGraphModel%3E%3Croot%3E%3CmxCell%20id%3D%220%22%2F%3E%3CmxCell%20id%3D%221%22%20parent%3D%220%22%2F%3E%3CmxCell%20id%3D%222%22%20value%3D%22Create%20Account%22%20style%3D%22rounded%3D1%3BwhiteSpace%3Dwrap%3Bhtml%3D1%3B%22%20vertex%3D%221%22%20parent%3D%221%22%3E%3CmxGeometry%20x%3D%22167.5%22%20y%3D%22130%22%20width%3D%22315%22%20height%3D%2260%22%20as%3D%22geometry%22%2F%3E%3C%2FmxCell%3E%3C%2Froot%3E%3C%2FmxGraphModel%3E&lt;/span&gt;" style="rounded=1;whiteSpace=wrap;html=1;" vertex="1" parent="1">
          <mxGeometry x="167.5" y="290" width="315" height="60" as="geometry" />
        </mxCell>
        <mxCell id="RWUjUu0c_Xh_wzrPaRDe-10" value="Select Movie" style="rounded=1;whiteSpace=wrap;html=1;" vertex="1" parent="1">
          <mxGeometry x="167.5" y="370" width="315" height="60" as="geometry" />
        </mxCell>
        <mxCell id="RWUjUu0c_Xh_wzrPaRDe-11" value="Browse Seats" style="rounded=1;whiteSpace=wrap;html=1;" vertex="1" parent="1">
          <mxGeometry x="167.5" y="610" width="315" height="60" as="geometry" />
        </mxCell>
        <mxCell id="RWUjUu0c_Xh_wzrPaRDe-12" value="Browse Showtimes" style="rounded=1;whiteSpace=wrap;html=1;" vertex="1" parent="1">
          <mxGeometry x="167.5" y="450" width="315" height="60" as="geometry" />
        </mxCell>
        <mxCell id="RWUjUu0c_Xh_wzrPaRDe-13" value="Select Showtime" style="rounded=1;whiteSpace=wrap;html=1;" vertex="1" parent="1">
          <mxGeometry x="167.5" y="530" width="315" height="60" as="geometry" />
        </mxCell>
        <mxCell id="RWUjUu0c_Xh_wzrPaRDe-14" value="Book Ticket&lt;span style=&quot;caret-color: rgba(0, 0, 0, 0); color: rgba(0, 0, 0, 0); font-family: monospace; font-size: 0px; text-align: start; white-space: nowrap;&quot;&gt;%3CmxGraphModel%3E%3Croot%3E%3CmxCell%20id%3D%220%22%2F%3E%3CmxCell%20id%3D%221%22%20parent%3D%220%22%2F%3E%3CmxCell%20id%3D%222%22%20value%3D%22Create%20Account%22%20style%3D%22rounded%3D1%3BwhiteSpace%3Dwrap%3Bhtml%3D1%3B%22%20vertex%3D%221%22%20parent%3D%221%22%3E%3CmxGeometry%20x%3D%22167.5%22%20y%3D%22130%22%20width%3D%22315%22%20height%3D%2260%22%20as%3D%22geometry%22%2F%3E%3C%2FmxCell%3E%3C%2Froot%3E%3C%2FmxGraphModel%3E&lt;/span&gt;" style="rounded=1;whiteSpace=wrap;html=1;" vertex="1" parent="1">
          <mxGeometry x="167.5" y="770" width="315" height="60" as="geometry" />
        </mxCell>
        <mxCell id="RWUjUu0c_Xh_wzrPaRDe-15" value="View Ticket" style="rounded=1;whiteSpace=wrap;html=1;" vertex="1" parent="1">
          <mxGeometry x="167.5" y="850" width="315" height="60" as="geometry" />
        </mxCell>
        <mxCell id="RWUjUu0c_Xh_wzrPaRDe-16" value="Cancel Ticket" style="rounded=1;whiteSpace=wrap;html=1;" vertex="1" parent="1">
          <mxGeometry x="167.5" y="930" width="315" height="60" as="geometry" />
        </mxCell>
        <mxCell id="RWUjUu0c_Xh_wzrPaRDe-17" value="New Movie announcements" style="rounded=1;whiteSpace=wrap;html=1;" vertex="1" parent="1">
          <mxGeometry x="167.5" y="1010" width="315" height="60" as="geometry" />
        </mxCell>
        <mxCell id="RWUjUu0c_Xh_wzrPaRDe-18" value="Add New Movie to theatre&lt;span style=&quot;caret-color: rgba(0, 0, 0, 0); color: rgba(0, 0, 0, 0); font-family: monospace; font-size: 0px; text-align: start; white-space: nowrap;&quot;&gt;%3CmxGraphModel%3E%3Croot%3E%3CmxCell%20id%3D%220%22%2F%3E%3CmxCell%20id%3D%221%22%20parent%3D%220%22%2F%3E%3CmxCell%20id%3D%222%22%20value%3D%22Create%20Account%22%20style%3D%22rounded%3D1%3BwhiteSpace%3Dwrap%3Bhtml%3D1%3B%22%20vertex%3D%221%22%20parent%3D%221%22%3E%3CmxGeometry%20x%3D%22167.5%22%20y%3D%22130%22%20width%3D%22315%22%20height%3D%2260%22%20as%3D%22geometry%22%2F%3E%3C%2FmxCell%3E%3C%2Froot%3E%3C%2FmxGraphModel%3E to&lt;/span&gt;" style="rounded=1;whiteSpace=wrap;html=1;" vertex="1" parent="1">
          <mxGeometry x="167.5" y="1090" width="315" height="60" as="geometry" />
        </mxCell>
        <mxCell id="RWUjUu0c_Xh_wzrPaRDe-19" value="Remove Movie from theatre" style="rounded=1;whiteSpace=wrap;html=1;" vertex="1" parent="1">
          <mxGeometry x="167.5" y="1170" width="315" height="60" as="geometry" />
        </mxCell>
        <mxCell id="RWUjUu0c_Xh_wzrPaRDe-20" value="User" style="shape=umlActor;verticalLabelPosition=bottom;verticalAlign=top;html=1;outlineConnect=0;" vertex="1" parent="1">
          <mxGeometry x="700" y="390" width="40" height="80" as="geometry" />
        </mxCell>
        <mxCell id="RWUjUu0c_Xh_wzrPaRDe-21" value="Registered User" style="shape=umlActor;verticalLabelPosition=bottom;verticalAlign=top;html=1;outlineConnect=0;" vertex="1" parent="1">
          <mxGeometry x="-40" y="370" width="40" height="80" as="geometry" />
        </mxCell>
        <mxCell id="RWUjUu0c_Xh_wzrPaRDe-25" value="" style="endArrow=classic;html=1;rounded=0;entryX=1;entryY=0.5;entryDx=0;entryDy=0;exitX=0;exitY=0.3333333333333333;exitDx=0;exitDy=0;exitPerimeter=0;" edge="1" parent="1" source="RWUjUu0c_Xh_wzrPaRDe-20" target="RWUjUu0c_Xh_wzrPaRDe-6">
          <mxGeometry width="50" height="50" relative="1" as="geometry">
            <mxPoint x="600" y="190" as="sourcePoint" />
            <mxPoint x="650" y="140" as="targetPoint" />
          </mxGeometry>
        </mxCell>
        <mxCell id="RWUjUu0c_Xh_wzrPaRDe-26" value="" style="endArrow=classic;html=1;rounded=0;exitX=0;exitY=0.3333333333333333;exitDx=0;exitDy=0;exitPerimeter=0;entryX=1;entryY=0.5;entryDx=0;entryDy=0;" edge="1" parent="1" source="RWUjUu0c_Xh_wzrPaRDe-20" target="RWUjUu0c_Xh_wzrPaRDe-8">
          <mxGeometry width="50" height="50" relative="1" as="geometry">
            <mxPoint x="710" y="147" as="sourcePoint" />
            <mxPoint x="493" y="170" as="targetPoint" />
          </mxGeometry>
        </mxCell>
        <mxCell id="RWUjUu0c_Xh_wzrPaRDe-27" value="" style="endArrow=classic;html=1;rounded=0;entryX=1;entryY=0.5;entryDx=0;entryDy=0;exitX=0;exitY=0.3333333333333333;exitDx=0;exitDy=0;exitPerimeter=0;" edge="1" parent="1" source="RWUjUu0c_Xh_wzrPaRDe-20" target="RWUjUu0c_Xh_wzrPaRDe-9">
          <mxGeometry width="50" height="50" relative="1" as="geometry">
            <mxPoint x="720" y="157" as="sourcePoint" />
            <mxPoint x="503" y="180" as="targetPoint" />
          </mxGeometry>
        </mxCell>
        <mxCell id="RWUjUu0c_Xh_wzrPaRDe-28" value="" style="endArrow=classic;html=1;rounded=0;entryX=1;entryY=0.5;entryDx=0;entryDy=0;exitX=0;exitY=0.3333333333333333;exitDx=0;exitDy=0;exitPerimeter=0;" edge="1" parent="1" source="RWUjUu0c_Xh_wzrPaRDe-20" target="RWUjUu0c_Xh_wzrPaRDe-10">
          <mxGeometry width="50" height="50" relative="1" as="geometry">
            <mxPoint x="640" y="130" as="sourcePoint" />
            <mxPoint x="513" y="190" as="targetPoint" />
          </mxGeometry>
        </mxCell>
        <mxCell id="RWUjUu0c_Xh_wzrPaRDe-29" value="" style="endArrow=classic;html=1;rounded=0;entryX=1;entryY=0.5;entryDx=0;entryDy=0;exitX=0;exitY=0.3333333333333333;exitDx=0;exitDy=0;exitPerimeter=0;" edge="1" parent="1" source="RWUjUu0c_Xh_wzrPaRDe-20" target="RWUjUu0c_Xh_wzrPaRDe-12">
          <mxGeometry width="50" height="50" relative="1" as="geometry">
            <mxPoint x="740" y="177" as="sourcePoint" />
            <mxPoint x="523" y="200" as="targetPoint" />
          </mxGeometry>
        </mxCell>
        <mxCell id="RWUjUu0c_Xh_wzrPaRDe-30" value="" style="endArrow=classic;html=1;rounded=0;entryX=1;entryY=0.5;entryDx=0;entryDy=0;exitX=0;exitY=0.3333333333333333;exitDx=0;exitDy=0;exitPerimeter=0;" edge="1" parent="1" source="RWUjUu0c_Xh_wzrPaRDe-20" target="RWUjUu0c_Xh_wzrPaRDe-13">
          <mxGeometry width="50" height="50" relative="1" as="geometry">
            <mxPoint x="750" y="187" as="sourcePoint" />
            <mxPoint x="533" y="210" as="targetPoint" />
          </mxGeometry>
        </mxCell>
        <mxCell id="RWUjUu0c_Xh_wzrPaRDe-31" value="" style="endArrow=classic;html=1;rounded=0;entryX=1;entryY=0.5;entryDx=0;entryDy=0;exitX=0;exitY=0.3333333333333333;exitDx=0;exitDy=0;exitPerimeter=0;" edge="1" parent="1" source="RWUjUu0c_Xh_wzrPaRDe-20" target="RWUjUu0c_Xh_wzrPaRDe-11">
          <mxGeometry width="50" height="50" relative="1" as="geometry">
            <mxPoint x="760" y="197" as="sourcePoint" />
            <mxPoint x="543" y="220" as="targetPoint" />
          </mxGeometry>
        </mxCell>
        <mxCell id="RWUjUu0c_Xh_wzrPaRDe-32" value="" style="endArrow=classic;html=1;rounded=0;entryX=1;entryY=0.5;entryDx=0;entryDy=0;exitX=0;exitY=0.3333333333333333;exitDx=0;exitDy=0;exitPerimeter=0;" edge="1" parent="1" source="RWUjUu0c_Xh_wzrPaRDe-20" target="RWUjUu0c_Xh_wzrPaRDe-3">
          <mxGeometry width="50" height="50" relative="1" as="geometry">
            <mxPoint x="770" y="207" as="sourcePoint" />
            <mxPoint x="553" y="230" as="targetPoint" />
          </mxGeometry>
        </mxCell>
        <mxCell id="RWUjUu0c_Xh_wzrPaRDe-34" value="" style="endArrow=classic;html=1;rounded=0;entryX=1;entryY=0.5;entryDx=0;entryDy=0;exitX=0;exitY=0.3333333333333333;exitDx=0;exitDy=0;exitPerimeter=0;" edge="1" parent="1" source="RWUjUu0c_Xh_wzrPaRDe-20" target="RWUjUu0c_Xh_wzrPaRDe-14">
          <mxGeometry width="50" height="50" relative="1" as="geometry">
            <mxPoint x="780" y="217" as="sourcePoint" />
            <mxPoint x="563" y="240" as="targetPoint" />
          </mxGeometry>
        </mxCell>
        <mxCell id="RWUjUu0c_Xh_wzrPaRDe-35" value="" style="endArrow=classic;html=1;rounded=0;entryX=1;entryY=0.5;entryDx=0;entryDy=0;exitX=0;exitY=0.3333333333333333;exitDx=0;exitDy=0;exitPerimeter=0;" edge="1" parent="1" source="RWUjUu0c_Xh_wzrPaRDe-20" target="RWUjUu0c_Xh_wzrPaRDe-15">
          <mxGeometry width="50" height="50" relative="1" as="geometry">
            <mxPoint x="790" y="227" as="sourcePoint" />
            <mxPoint x="573" y="250" as="targetPoint" />
          </mxGeometry>
        </mxCell>
        <mxCell id="RWUjUu0c_Xh_wzrPaRDe-37" value="85% refund&lt;div&gt;(15% admin fee)&lt;/div&gt;" style="ellipse;whiteSpace=wrap;html=1;" vertex="1" parent="1">
          <mxGeometry x="800" y="530" width="120" height="80" as="geometry" />
        </mxCell>
        <mxCell id="RWUjUu0c_Xh_wzrPaRDe-39" value="" style="endArrow=classic;html=1;rounded=0;exitX=0;exitY=1;exitDx=0;exitDy=0;entryX=1;entryY=0.5;entryDx=0;entryDy=0;" edge="1" parent="1" source="RWUjUu0c_Xh_wzrPaRDe-37" target="RWUjUu0c_Xh_wzrPaRDe-16">
          <mxGeometry width="50" height="50" relative="1" as="geometry">
            <mxPoint x="420" y="800" as="sourcePoint" />
            <mxPoint x="470" y="750" as="targetPoint" />
          </mxGeometry>
        </mxCell>
        <mxCell id="RWUjUu0c_Xh_wzrPaRDe-40" value="" style="endArrow=classic;html=1;rounded=0;exitX=1;exitY=0.3333333333333333;exitDx=0;exitDy=0;exitPerimeter=0;entryX=0.5;entryY=0;entryDx=0;entryDy=0;" edge="1" parent="1" source="RWUjUu0c_Xh_wzrPaRDe-20" target="RWUjUu0c_Xh_wzrPaRDe-37">
          <mxGeometry relative="1" as="geometry">
            <mxPoint x="730" y="670" as="sourcePoint" />
            <mxPoint x="830" y="670" as="targetPoint" />
          </mxGeometry>
        </mxCell>
        <mxCell id="RWUjUu0c_Xh_wzrPaRDe-41" value="&amp;lt;&amp;lt;Uses&amp;gt;&amp;gt;" style="edgeLabel;resizable=0;html=1;;align=center;verticalAlign=middle;" connectable="0" vertex="1" parent="RWUjUu0c_Xh_wzrPaRDe-40">
          <mxGeometry relative="1" as="geometry" />
        </mxCell>
        <mxCell id="RWUjUu0c_Xh_wzrPaRDe-43" value="" style="endArrow=classic;html=1;rounded=0;exitX=1;exitY=0.3333333333333333;exitDx=0;exitDy=0;exitPerimeter=0;entryX=0;entryY=0.5;entryDx=0;entryDy=0;" edge="1" parent="1" source="RWUjUu0c_Xh_wzrPaRDe-21" target="RWUjUu0c_Xh_wzrPaRDe-6">
          <mxGeometry width="50" height="50" relative="1" as="geometry">
            <mxPoint x="120" y="390" as="sourcePoint" />
            <mxPoint x="170" y="340" as="targetPoint" />
          </mxGeometry>
        </mxCell>
        <mxCell id="RWUjUu0c_Xh_wzrPaRDe-44" value="" style="endArrow=classic;html=1;rounded=0;exitX=1;exitY=0.3333333333333333;exitDx=0;exitDy=0;exitPerimeter=0;entryX=0;entryY=0.25;entryDx=0;entryDy=0;" edge="1" parent="1" source="RWUjUu0c_Xh_wzrPaRDe-21" target="RWUjUu0c_Xh_wzrPaRDe-8">
          <mxGeometry width="50" height="50" relative="1" as="geometry">
            <mxPoint x="10" y="407" as="sourcePoint" />
            <mxPoint x="178" y="170" as="targetPoint" />
          </mxGeometry>
        </mxCell>
        <mxCell id="RWUjUu0c_Xh_wzrPaRDe-45" value="" style="endArrow=classic;html=1;rounded=0;exitX=1;exitY=0.3333333333333333;exitDx=0;exitDy=0;exitPerimeter=0;entryX=0;entryY=0.25;entryDx=0;entryDy=0;" edge="1" parent="1" source="RWUjUu0c_Xh_wzrPaRDe-21" target="RWUjUu0c_Xh_wzrPaRDe-9">
          <mxGeometry width="50" height="50" relative="1" as="geometry">
            <mxPoint x="20" y="417" as="sourcePoint" />
            <mxPoint x="188" y="180" as="targetPoint" />
          </mxGeometry>
        </mxCell>
        <mxCell id="RWUjUu0c_Xh_wzrPaRDe-46" value="" style="endArrow=classic;html=1;rounded=0;exitX=1;exitY=0.3333333333333333;exitDx=0;exitDy=0;exitPerimeter=0;entryX=-0.004;entryY=0.41;entryDx=0;entryDy=0;entryPerimeter=0;" edge="1" parent="1" source="RWUjUu0c_Xh_wzrPaRDe-21" target="RWUjUu0c_Xh_wzrPaRDe-10">
          <mxGeometry width="50" height="50" relative="1" as="geometry">
            <mxPoint x="30" y="427" as="sourcePoint" />
            <mxPoint x="198" y="190" as="targetPoint" />
          </mxGeometry>
        </mxCell>
        <mxCell id="RWUjUu0c_Xh_wzrPaRDe-47" value="" style="endArrow=classic;html=1;rounded=0;exitX=1;exitY=0.3333333333333333;exitDx=0;exitDy=0;exitPerimeter=0;entryX=0;entryY=0.5;entryDx=0;entryDy=0;" edge="1" parent="1" source="RWUjUu0c_Xh_wzrPaRDe-21" target="RWUjUu0c_Xh_wzrPaRDe-12">
          <mxGeometry width="50" height="50" relative="1" as="geometry">
            <mxPoint x="40" y="437" as="sourcePoint" />
            <mxPoint x="208" y="200" as="targetPoint" />
          </mxGeometry>
        </mxCell>
        <mxCell id="RWUjUu0c_Xh_wzrPaRDe-48" value="" style="endArrow=classic;html=1;rounded=0;exitX=1;exitY=0.3333333333333333;exitDx=0;exitDy=0;exitPerimeter=0;entryX=0;entryY=0.5;entryDx=0;entryDy=0;" edge="1" parent="1" source="RWUjUu0c_Xh_wzrPaRDe-21" target="RWUjUu0c_Xh_wzrPaRDe-13">
          <mxGeometry width="50" height="50" relative="1" as="geometry">
            <mxPoint x="50" y="447" as="sourcePoint" />
            <mxPoint x="218" y="210" as="targetPoint" />
          </mxGeometry>
        </mxCell>
        <mxCell id="RWUjUu0c_Xh_wzrPaRDe-49" value="" style="endArrow=classic;html=1;rounded=0;exitX=1;exitY=0.3333333333333333;exitDx=0;exitDy=0;exitPerimeter=0;entryX=0;entryY=0.5;entryDx=0;entryDy=0;" edge="1" parent="1" source="RWUjUu0c_Xh_wzrPaRDe-21" target="RWUjUu0c_Xh_wzrPaRDe-11">
          <mxGeometry width="50" height="50" relative="1" as="geometry">
            <mxPoint x="60" y="457" as="sourcePoint" />
            <mxPoint x="228" y="220" as="targetPoint" />
          </mxGeometry>
        </mxCell>
        <mxCell id="RWUjUu0c_Xh_wzrPaRDe-50" value="" style="endArrow=classic;html=1;rounded=0;exitX=1;exitY=0.3333333333333333;exitDx=0;exitDy=0;exitPerimeter=0;entryX=0.002;entryY=0.616;entryDx=0;entryDy=0;entryPerimeter=0;" edge="1" parent="1" source="RWUjUu0c_Xh_wzrPaRDe-21" target="RWUjUu0c_Xh_wzrPaRDe-3">
          <mxGeometry width="50" height="50" relative="1" as="geometry">
            <mxPoint x="-40" y="697" as="sourcePoint" />
            <mxPoint x="128" y="460" as="targetPoint" />
          </mxGeometry>
        </mxCell>
        <mxCell id="RWUjUu0c_Xh_wzrPaRDe-51" value="" style="endArrow=classic;html=1;rounded=0;exitX=1;exitY=0.3333333333333333;exitDx=0;exitDy=0;exitPerimeter=0;entryX=0;entryY=0.25;entryDx=0;entryDy=0;" edge="1" parent="1" source="RWUjUu0c_Xh_wzrPaRDe-21" target="RWUjUu0c_Xh_wzrPaRDe-14">
          <mxGeometry width="50" height="50" relative="1" as="geometry">
            <mxPoint x="-60" y="788.5" as="sourcePoint" />
            <mxPoint x="108" y="551.5" as="targetPoint" />
          </mxGeometry>
        </mxCell>
        <mxCell id="RWUjUu0c_Xh_wzrPaRDe-52" value="" style="endArrow=classic;html=1;rounded=0;exitX=1;exitY=0.3333333333333333;exitDx=0;exitDy=0;exitPerimeter=0;entryX=0;entryY=0.5;entryDx=0;entryDy=0;" edge="1" parent="1" source="RWUjUu0c_Xh_wzrPaRDe-21" target="RWUjUu0c_Xh_wzrPaRDe-15">
          <mxGeometry width="50" height="50" relative="1" as="geometry">
            <mxPoint x="-120" y="807" as="sourcePoint" />
            <mxPoint x="48" y="570" as="targetPoint" />
          </mxGeometry>
        </mxCell>
        <mxCell id="RWUjUu0c_Xh_wzrPaRDe-53" value="" style="endArrow=classic;html=1;rounded=0;entryX=0;entryY=0.5;entryDx=0;entryDy=0;exitX=1;exitY=1;exitDx=0;exitDy=0;" edge="1" parent="1" source="RWUjUu0c_Xh_wzrPaRDe-54" target="RWUjUu0c_Xh_wzrPaRDe-16">
          <mxGeometry width="50" height="50" relative="1" as="geometry">
            <mxPoint x="-150" y="827" as="sourcePoint" />
            <mxPoint x="18" y="590" as="targetPoint" />
          </mxGeometry>
        </mxCell>
        <mxCell id="RWUjUu0c_Xh_wzrPaRDe-54" value="Full refund" style="ellipse;whiteSpace=wrap;html=1;" vertex="1" parent="1">
          <mxGeometry x="-200" y="520" width="120" height="80" as="geometry" />
        </mxCell>
        <mxCell id="RWUjUu0c_Xh_wzrPaRDe-55" value="" style="endArrow=classic;html=1;rounded=0;entryX=0.5;entryY=0;entryDx=0;entryDy=0;exitX=0;exitY=0.3333333333333333;exitDx=0;exitDy=0;exitPerimeter=0;" edge="1" parent="1" source="RWUjUu0c_Xh_wzrPaRDe-21" target="RWUjUu0c_Xh_wzrPaRDe-54">
          <mxGeometry relative="1" as="geometry">
            <mxPoint x="-180" y="420" as="sourcePoint" />
            <mxPoint x="-80" y="420" as="targetPoint" />
          </mxGeometry>
        </mxCell>
        <mxCell id="RWUjUu0c_Xh_wzrPaRDe-56" value="Uses" style="edgeLabel;resizable=0;html=1;;align=center;verticalAlign=middle;" connectable="0" vertex="1" parent="RWUjUu0c_Xh_wzrPaRDe-55">
          <mxGeometry relative="1" as="geometry" />
        </mxCell>
        <mxCell id="RWUjUu0c_Xh_wzrPaRDe-58" value="" style="endArrow=classic;html=1;rounded=0;entryX=0;entryY=0.75;entryDx=0;entryDy=0;exitX=1;exitY=0.3333333333333333;exitDx=0;exitDy=0;exitPerimeter=0;" edge="1" parent="1" source="RWUjUu0c_Xh_wzrPaRDe-21" target="RWUjUu0c_Xh_wzrPaRDe-17">
          <mxGeometry width="50" height="50" relative="1" as="geometry">
            <mxPoint x="-10" y="550" as="sourcePoint" />
            <mxPoint x="110" y="750" as="targetPoint" />
          </mxGeometry>
        </mxCell>
        <mxCell id="RWUjUu0c_Xh_wzrPaRDe-62" value="Modify Show" style="rounded=1;whiteSpace=wrap;html=1;" vertex="1" parent="1">
          <mxGeometry x="167.5" y="1250" width="315" height="60" as="geometry" />
        </mxCell>
        <mxCell id="RWUjUu0c_Xh_wzrPaRDe-63" value="Admin" style="shape=umlActor;verticalLabelPosition=bottom;verticalAlign=top;html=1;outlineConnect=0;" vertex="1" parent="1">
          <mxGeometry x="-35" y="1110" width="30" height="60" as="geometry" />
        </mxCell>
        <mxCell id="RWUjUu0c_Xh_wzrPaRDe-66" value="" style="endArrow=classic;html=1;rounded=0;exitX=1;exitY=0.3333333333333333;exitDx=0;exitDy=0;exitPerimeter=0;entryX=0;entryY=0.5;entryDx=0;entryDy=0;" edge="1" parent="1" source="RWUjUu0c_Xh_wzrPaRDe-63" target="RWUjUu0c_Xh_wzrPaRDe-18">
          <mxGeometry width="50" height="50" relative="1" as="geometry">
            <mxPoint x="140" y="1150" as="sourcePoint" />
            <mxPoint x="190" y="1100" as="targetPoint" />
          </mxGeometry>
        </mxCell>
        <mxCell id="RWUjUu0c_Xh_wzrPaRDe-67" value="" style="endArrow=classic;html=1;rounded=0;entryX=0;entryY=0.5;entryDx=0;entryDy=0;exitX=1;exitY=0.3333333333333333;exitDx=0;exitDy=0;exitPerimeter=0;" edge="1" parent="1" source="RWUjUu0c_Xh_wzrPaRDe-63" target="RWUjUu0c_Xh_wzrPaRDe-19">
          <mxGeometry width="50" height="50" relative="1" as="geometry">
            <mxPoint x="140" y="1150" as="sourcePoint" />
            <mxPoint x="190" y="1100" as="targetPoint" />
          </mxGeometry>
        </mxCell>
        <mxCell id="RWUjUu0c_Xh_wzrPaRDe-68" value="" style="endArrow=classic;html=1;rounded=0;exitX=1;exitY=0.3333333333333333;exitDx=0;exitDy=0;exitPerimeter=0;entryX=0;entryY=0.5;entryDx=0;entryDy=0;" edge="1" parent="1" source="RWUjUu0c_Xh_wzrPaRDe-63" target="RWUjUu0c_Xh_wzrPaRDe-62">
          <mxGeometry width="50" height="50" relative="1" as="geometry">
            <mxPoint x="140" y="1150" as="sourcePoint" />
            <mxPoint x="190" y="1100" as="targetPoint" />
          </mxGeometry>
        </mxCell>
      </root>
    </mxGraphModel>
  </diagram>
</mxfile>
